{
    "accessors": [
        {
            "bufferView": 0,
            "componentType": 5126,
            "count": 31,
            "max": [
                0.009999999776482582,
                -0.13001467287540436,
                1.4019999504089355
            ],
            "min": [
                0.009999999776482582,
                -0.14998532831668854,
                1.3819999694824219
            ],
            "name": "mesh12_coord_accessor",
            "type": "VEC3"
        },
        {
            "bufferView": 1,
            "componentType": 5126,
            "count": 31,
            "max": [
                -1.0,
                -0.0,
                -0.0
            ],
            "min": [
                -1.0,
                -0.0,
                -0.0
            ],
            "name": "mesh12_norm_accessor",
            "type": "VEC3"
        },
        {
            "bufferView": 2,
            "componentType": 5125,
            "count": 90,
            "max": [
                30
            ],
            "min": [
                0
            ],
            "name": "mesh12_idx_accessor",
            "type": "SCALAR"
        },
        {
            "bufferView": 3,
            "componentType": 5126,
            "count": 61,
            "max": [
                0.125,
                -0.12999999523162842,
                1.4019999504089355
            ],
            "min": [
                0.009999999776482582,
                -0.15000000596046448,
                1.3819999694824219
            ],
            "name": "mesh13_coord_accessor",
            "type": "VEC3"
        },
        {
            "bufferView": 4,
            "componentType": 5126,
            "count": 61,
            "max": [
                0.0,
                1.0,
                1.0
            ],
            "min": [
                0.0,
                -1.0,
                -1.0
            ],
            "name": "mesh13_norm_accessor",
            "type": "VEC3"
        },
        {
            "bufferView": 5,
            "componentType": 5125,
            "count": 183,
            "max": [
                60
            ],
            "min": [
                0
            ],
            "name": "mesh13_idx_accessor",
            "type": "SCALAR"
        },
        {
            "bufferView": 6,
            "componentType": 5126,
            "count": 10,
            "max": [
                0.125,
                -0.12999999523162842,
                1.4019999504089355
            ],
            "min": [
                0.125,
                -0.14000000059604645,
                1.3919999599456787
            ],
            "name": "mesh14_coord_accessor",
            "type": "VEC3"
        },
        {
            "bufferView": 7,
            "componentType": 5126,
            "count": 10,
            "max": [
                -1.0,
                -0.0,
                -0.0
            ],
            "min": [
                -1.0,
                -0.0,
                -0.0
            ],
            "name": "mesh14_norm_accessor",
            "type": "VEC3"
        },
        {
            "bufferView": 8,
            "componentType": 5125,
            "count": 24,
            "max": [
                9
            ],
            "min": [
                0
            ],
            "name": "mesh14_idx_accessor",
            "type": "SCALAR"
        },
        {
            "bufferView": 9,
            "componentType": 5126,
            "count": 10,
            "max": [
                0.125,
                -0.14000000059604645,
                1.4019999504089355
            ],
            "min": [
                0.125,
                -0.15000000596046448,
                1.3919999599456787
            ],
            "name": "mesh15_coord_accessor",
            "type": "VEC3"
        },
        {
            "bufferView": 10,
            "componentType": 5126,
            "count": 10,
            "max": [
                -1.0,
                -0.0,
                -0.0
            ],
            "min": [
                -1.0,
                -0.0,
                -0.0
            ],
            "name": "mesh15_norm_accessor",
            "type": "VEC3"
        },
        {
            "bufferView": 11,
            "componentType": 5125,
            "count": 24,
            "max": [
                9
            ],
            "min": [
                0
            ],
            "name": "mesh15_idx_accessor",
            "type": "SCALAR"
        },
        {
            "bufferView": 12,
            "componentType": 5126,
            "count": 5,
            "max": [
                0.14499999582767487,
                -0.12999999523162842,
                1.4019999504089355
            ],
            "min": [
                0.125,
                -0.15000000596046448,
                1.4019999504089355
            ],
            "name": "mesh16_coord_accessor",
            "type": "VEC3"
        },
        {
            "bufferView": 13,
            "componentType": 5126,
            "count": 5,
            "max": [
                0.0,
                0.0,
                1.0
            ],
            "min": [
                0.0,
                0.0,
                1.0
            ],
            "name": "mesh16_norm_accessor",
            "type": "VEC3"
        },
        {
            "bufferView": 14,
            "componentType": 5125,
            "count": 9,
            "max": [
                4
            ],
            "min": [
                0
            ],
            "name": "mesh16_idx_accessor",
            "type": "SCALAR"
        },
        {
            "bufferView": 15,
            "componentType": 5126,
            "count": 5,
            "max": [
                0.14499999582767487,
                -0.12999999523162842,
                1.4019999504089355
            ],
            "min": [
                0.125,
                -0.12999999523162842,
                0.17599999904632568
            ],
            "name": "mesh17_coord_accessor",
            "type": "VEC3"
        },
        {
            "bufferView": 16,
            "componentType": 5126,
            "count": 5,
            "max": [
                0.0,
                1.0,
                0.0
            ],
            "min": [
                0.0,
                1.0,
                0.0
            ],
            "name": "mesh17_norm_accessor",
            "type": "VEC3"
        },
        {
            "bufferView": 17,
            "componentType": 5125,
            "count": 9,
            "max": [
                4
            ],
            "min": [
                0
            ],
            "name": "mesh17_idx_accessor",
            "type": "SCALAR"
        },
        {
            "bufferView": 18,
            "componentType": 5126,
            "count": 5,
            "max": [
                0.14499999582767487,
                -0.15000000596046448,
                1.4019999504089355
            ],
            "min": [
                0.125,
                -0.15000000596046448,
                0.17599999904632568
            ],
            "name": "mesh18_coord_accessor",
            "type": "VEC3"
        },
        {
            "bufferView": 19,
            "componentType": 5126,
            "count": 5,
            "max": [
                -0.0,
                -1.0,
                -0.0
            ],
            "min": [
                -0.0,
                -1.0,
                -0.0
            ],
            "name": "mesh18_norm_accessor",
            "type": "VEC3"
        },
        {
            "bufferView": 20,
            "componentType": 5125,
            "count": 9,
            "max": [
                4
            ],
            "min": [
                0
            ],
            "name": "mesh18_idx_accessor",
            "type": "SCALAR"
        },
        {
            "bufferView": 21,
            "componentType": 5126,
            "count": 18,
            "max": [
                0.125,
                -0.12999999523162842,
                1.3919999599456787
            ],
            "min": [
                0.125,
                -0.15000000596046448,
                0.17599999904632568
            ],
            "name": "mesh19_coord_accessor",
            "type": "VEC3"
        },
        {
            "bufferView": 22,
            "componentType": 5126,
            "count": 18,
            "max": [
                -1.0,
                -0.0,
                -0.0
            ],
            "min": [
                -1.0,
                -0.0,
                -0.0
            ],
            "name": "mesh19_norm_accessor",
            "type": "VEC3"
        },
        {
            "bufferView": 23,
            "componentType": 5125,
            "count": 48,
            "max": [
                17
            ],
            "min": [
                0
            ],
            "name": "mesh19_idx_accessor",
            "type": "SCALAR"
        },
        {
            "bufferView": 24,
            "componentType": 5126,
            "count": 4,
            "max": [
                0.14499999582767487,
                -0.12999999523162842,
                1.4019999504089355
            ],
            "min": [
                0.14499999582767487,
                -0.15000000596046448,
                0.17599999904632568
            ],
            "name": "mesh20_coord_accessor",
            "type": "VEC3"
        },
        {
            "bufferView": 25,
            "componentType": 5126,
            "count": 4,
            "max": [
                1.0,
                0.0,
                0.0
            ],
            "min": [
                1.0,
                0.0,
                0.0
            ],
            "name": "mesh20_norm_accessor",
            "type": "VEC3"
        },
        {
            "bufferView": 26,
            "componentType": 5125,
            "count": 6,
            "max": [
                3
            ],
            "min": [
                0
            ],
            "name": "mesh20_idx_accessor",
            "type": "SCALAR"
        },
        {
            "bufferView": 27,
            "componentType": 5126,
            "count": 68,
            "max": [
                0.20999999344348907,
                0.20999999344348907,
                0.17599999904632568
            ],
            "min": [
                -0.20999999344348907,
                -0.20999999344348907,
                0.17599999904632568
            ],
            "name": "mesh21_coord_accessor",
            "type": "VEC3"
        },
        {
            "bufferView": 28,
            "componentType": 5126,
            "count": 68,
            "max": [
                0.0,
                0.0,
                1.0
            ],
            "min": [
                0.0,
                0.0,
                1.0
            ],
            "name": "mesh21_norm_accessor",
            "type": "VEC3"
        },
        {
            "bufferView": 29,
            "componentType": 5125,
            "count": 204,
            "max": [
                67
            ],
            "min": [
                0
            ],
            "name": "mesh21_idx_accessor",
            "type": "SCALAR"
        },
        {
            "bufferView": 30,
            "componentType": 5126,
            "count": 32,
            "max": [
                0.20999999344348907,
                -0.05249999836087227,
                0.17599999904632568
            ],
            "min": [
                0.05249999836087227,
                -0.20999999344348907,
                0.1679999977350235
            ],
            "name": "mesh22_coord_accessor",
            "type": "VEC3"
        },
        {
            "bufferView": 31,
            "componentType": 5126,
            "count": 32,
            "max": [
                1.0,
                0.0,
                0.0
            ],
            "min": [
                1.8369701465288538e-16,
                -1.0,
                0.0
            ],
            "name": "mesh22_norm_accessor",
            "type": "VEC3"
        },
        {
            "bufferView": 32,
            "componentType": 5125,
            "count": 90,
            "max": [
                31
            ],
            "min": [
                0
            ],
            "name": "mesh22_idx_accessor",
            "type": "SCALAR"
        },
        {
            "bufferView": 33,
            "componentType": 5126,
            "count": 64,
            "max": [
                0.20999999344348907,
                0.20999999344348907,
                0.1679999977350235
            ],
            "min": [
                -0.20999999344348907,
                -0.20999999344348907,
                0.1679999977350235
            ],
            "name": "mesh23_coord_accessor",
            "type": "VEC3"
        },
        {
            "bufferView": 34,
            "componentType": 5126,
            "count": 64,
            "max": [
                -0.0,
                -0.0,
                -1.0
            ],
            "min": [
                -0.0,
                -0.0,
                -1.0
            ],
            "name": "mesh23_norm_accessor",
            "type": "VEC3"
        },
        {
            "bufferView": 35,
            "componentType": 5125,
            "count": 186,
            "max": [
                63
            ],
            "min": [
                0
            ],
            "name": "mesh23_idx_accessor",
            "type": "SCALAR"
        },
        {
            "bufferView": 36,
            "componentType": 5126,
            "count": 4,
            "max": [
                0.20999999344348907,
                0.05249999836087227,
                0.17599999904632568
            ],
            "min": [
                0.20999999344348907,
                -0.05249999836087227,
                0.1679999977350235
            ],
            "name": "mesh24_coord_accessor",
            "type": "VEC3"
        },
        {
            "bufferView": 37,
            "componentType": 5126,
            "count": 4,
            "max": [
                1.0,
                -0.0,
                -0.0
            ],
            "min": [
                1.0,
                -0.0,
                -0.0
            ],
            "name": "mesh24_norm_accessor",
            "type": "VEC3"
        },
        {
            "bufferView": 38,
            "componentType": 5125,
            "count": 6,
            "max": [
                3
            ],
            "min": [
                0
            ],
            "name": "mesh24_idx_accessor",
            "type": "SCALAR"
        },
        {
            "bufferView": 39,
            "componentType": 5126,
            "count": 32,
            "max": [
                0.20999999344348907,
                0.20999999344348907,
                0.17599999904632568
            ],
            "min": [
                0.05249999836087227,
                0.05249999836087227,
                0.1679999977350235
            ],
            "name": "mesh25_coord_accessor",
            "type": "VEC3"
        },
        {
            "bufferView": 40,
            "componentType": 5126,
            "count": 32,
            "max": [
                1.0,
                1.0,
                0.0
            ],
            "min": [
                -6.123234262925839e-17,
                1.2246468525851679e-16,
                0.0
            ],
            "name": "mesh25_norm_accessor",
            "type": "VEC3"
        },
        {
            "bufferView": 41,
            "componentType": 5125,
            "count": 90,
            "max": [
                31
            ],
            "min": [
                0
            ],
            "name": "mesh25_idx_accessor",
            "type": "SCALAR"
        },
        {
            "bufferView": 42,
            "componentType": 5126,
            "count": 4,
            "max": [
                0.05249999836087227,
                0.20999999344348907,
                0.17599999904632568
            ],
            "min": [
                -0.05249999836087227,
                0.20999999344348907,
                0.1679999977350235
            ],
            "name": "mesh26_coord_accessor",
            "type": "VEC3"
        },
        {
            "bufferView": 43,
            "componentType": 5126,
            "count": 4,
            "max": [
                -0.0,
                1.0,
                -0.0
            ],
            "min": [
                -0.0,
                1.0,
                -0.0
            ],
            "name": "mesh26_norm_accessor",
            "type": "VEC3"
        },
        {
            "bufferView": 44,
            "componentType": 5125,
            "count": 6,
            "max": [
                3
            ],
            "min": [
                0
            ],
            "name": "mesh26_idx_accessor",
            "type": "SCALAR"
        },
        {
            "bufferView": 45,
            "componentType": 5126,
            "count": 32,
            "max": [
                -0.05249999836087227,
                0.20999999344348907,
                0.17599999904632568
            ],
            "min": [
                -0.20999999344348907,
                0.05249999836087227,
                0.1679999977350235
            ],
            "name": "mesh27_coord_accessor",
            "type": "VEC3"
        },
        {
            "bufferView": 46,
            "componentType": 5126,
            "count": 32,
            "max": [
                -6.123234262925839e-17,
                1.0,
                0.0
            ],
            "min": [
                -1.0,
                0.0,
                0.0
            ],
            "name": "mesh27_norm_accessor",
            "type": "VEC3"
        },
        {
            "bufferView": 47,
            "componentType": 5125,
            "count": 90,
            "max": [
                31
            ],
            "min": [
                0
            ],
            "name": "mesh27_idx_accessor",
            "type": "SCALAR"
        },
        {
            "bufferView": 48,
            "componentType": 5126,
            "count": 4,
            "max": [
                -0.20999999344348907,
                0.05249999836087227,
                0.17599999904632568
            ],
            "min": [
                -0.20999999344348907,
                -0.05249999836087227,
                0.1679999977350235
            ],
            "name": "mesh28_coord_accessor",
            "type": "VEC3"
        },
        {
            "bufferView": 49,
            "componentType": 5126,
            "count": 4,
            "max": [
                -1.0,
                0.0,
                0.0
            ],
            "min": [
                -1.0,
                0.0,
                0.0
            ],
            "name": "mesh28_norm_accessor",
            "type": "VEC3"
        },
        {
            "bufferView": 50,
            "componentType": 5125,
            "count": 6,
            "max": [
                3
            ],
            "min": [
                0
            ],
            "name": "mesh28_idx_accessor",
            "type": "SCALAR"
        },
        {
            "bufferView": 51,
            "componentType": 5126,
            "count": 32,
            "max": [
                -0.05249999836087227,
                -0.05249999836087227,
                0.17599999904632568
            ],
            "min": [
                -0.20999999344348907,
                -0.20999999344348907,
                0.1679999977350235
            ],
            "name": "mesh29_coord_accessor",
            "type": "VEC3"
        },
        {
            "bufferView": 52,
            "componentType": 5126,
            "count": 32,
            "max": [
                1.8369701465288538e-16,
                -2.4492937051703357e-16,
                0.0
            ],
            "min": [
                -1.0,
                -1.0,
                0.0
            ],
            "name": "mesh29_norm_accessor",
            "type": "VEC3"
        },
        {
            "bufferView": 53,
            "componentType": 5125,
            "count": 90,
            "max": [
                31
            ],
            "min": [
                0
            ],
            "name": "mesh29_idx_accessor",
            "type": "SCALAR"
        },
        {
            "bufferView": 54,
            "componentType": 5126,
            "count": 4,
            "max": [
                0.05249999836087227,
                -0.20999999344348907,
                0.17599999904632568
            ],
            "min": [
                -0.05249999836087227,
                -0.20999999344348907,
                0.1679999977350235
            ],
            "name": "mesh30_coord_accessor",
            "type": "VEC3"
        },
        {
            "bufferView": 55,
            "componentType": 5126,
            "count": 4,
            "max": [
                0.0,
                -1.0,
                0.0
            ],
            "min": [
                0.0,
                -1.0,
                0.0
            ],
            "name": "mesh30_norm_accessor",
            "type": "VEC3"
        },
        {
            "bufferView": 56,
            "componentType": 5125,
            "count": 6,
            "max": [
                3
            ],
            "min": [
                0
            ],
            "name": "mesh30_idx_accessor",
            "type": "SCALAR"
        }
    ],
    "asset": {
        "generator": "ONSHAPE BY PTC INC, 1.221",
        "version": "2.0"
    },
    "bufferViews": [
        {
            "buffer": 0,
            "byteLength": 372,
            "name": "mesh12_coord_bufferView",
            "target": 34962
        },
        {
            "buffer": 0,
            "byteLength": 372,
            "byteOffset": 372,
            "name": "mesh12_norm_bufferView",
            "target": 34962
        },
        {
            "buffer": 0,
            "byteLength": 360,
            "byteOffset": 744,
            "name": "mesh12_idx_bufferView",
            "target": 34963
        },
        {
            "buffer": 0,
            "byteLength": 732,
            "byteOffset": 1104,
            "name": "mesh13_coord_bufferView",
            "target": 34962
        },
        {
            "buffer": 0,
            "byteLength": 732,
            "byteOffset": 1836,
            "name": "mesh13_norm_bufferView",
            "target": 34962
        },
        {
            "buffer": 0,
            "byteLength": 732,
            "byteOffset": 2568,
            "name": "mesh13_idx_bufferView",
            "target": 34963
        },
        {
            "buffer": 0,
            "byteLength": 120,
            "byteOffset": 3300,
            "name": "mesh14_coord_bufferView",
            "target": 34962
        },
        {
            "buffer": 0,
            "byteLength": 120,
            "byteOffset": 3420,
            "name": "mesh14_norm_bufferView",
            "target": 34962
        },
        {
            "buffer": 0,
            "byteLength": 96,
            "byteOffset": 3540,
            "name": "mesh14_idx_bufferView",
            "target": 34963
        },
        {
            "buffer": 0,
            "byteLength": 120,
            "byteOffset": 3636,
            "name": "mesh15_coord_bufferView",
            "target": 34962
        },
        {
            "buffer": 0,
            "byteLength": 120,
            "byteOffset": 3756,
            "name": "mesh15_norm_bufferView",
            "target": 34962
        },
        {
            "buffer": 0,
            "byteLength": 96,
            "byteOffset": 3876,
            "name": "mesh15_idx_bufferView",
            "target": 34963
        },
        {
            "buffer": 0,
            "byteLength": 60,
            "byteOffset": 3972,
            "name": "mesh16_coord_bufferView",
            "target": 34962
        },
        {
            "buffer": 0,
            "byteLength": 60,
            "byteOffset": 4032,
            "name": "mesh16_norm_bufferView",
            "target": 34962
        },
        {
            "buffer": 0,
            "byteLength": 36,
            "byteOffset": 4092,
            "name": "mesh16_idx_bufferView",
            "target": 34963
        },
        {
            "buffer": 0,
            "byteLength": 60,
            "byteOffset": 4128,
            "name": "mesh17_coord_bufferView",
            "target": 34962
        },
        {
            "buffer": 0,
            "byteLength": 60,
            "byteOffset": 4188,
            "name": "mesh17_norm_bufferView",
            "target": 34962
        },
        {
            "buffer": 0,
            "byteLength": 36,
            "byteOffset": 4248,
            "name": "mesh17_idx_bufferView",
            "target": 34963
        },
        {
            "buffer": 0,
            "byteLength": 60,
            "byteOffset": 4284,
            "name": "mesh18_coord_bufferView",
            "target": 34962
        },
        {
            "buffer": 0,
            "byteLength": 60,
            "byteOffset": 4344,
            "name": "mesh18_norm_bufferView",
            "target": 34962
        },
        {
            "buffer": 0,
            "byteLength": 36,
            "byteOffset": 4404,
            "name": "mesh18_idx_bufferView",
            "target": 34963
        },
        {
            "buffer": 0,
            "byteLength": 216,
            "byteOffset": 4440,
            "name": "mesh19_coord_bufferView",
            "target": 34962
        },
        {
            "buffer": 0,
            "byteLength": 216,
            "byteOffset": 4656,
            "name": "mesh19_norm_bufferView",
            "target": 34962
        },
        {
            "buffer": 0,
            "byteLength": 192,
            "byteOffset": 4872,
            "name": "mesh19_idx_bufferView",
            "target": 34963
        },
        {
            "buffer": 0,
            "byteLength": 48,
            "byteOffset": 5064,
            "name": "mesh20_coord_bufferView",
            "target": 34962
        },
        {
            "buffer": 0,
            "byteLength": 48,
            "byteOffset": 5112,
            "name": "mesh20_norm_bufferView",
            "target": 34962
        },
        {
            "buffer": 0,
            "byteLength": 24,
            "byteOffset": 5160,
            "name": "mesh20_idx_bufferView",
            "target": 34963
        },
        {
            "buffer": 0,
            "byteLength": 816,
            "byteOffset": 5184,
            "name": "mesh21_coord_bufferView",
            "target": 34962
        },
        {
            "buffer": 0,
            "byteLength": 816,
            "byteOffset": 6000,
            "name": "mesh21_norm_bufferView",
            "target": 34962
        },
        {
            "buffer": 0,
            "byteLength": 816,
            "byteOffset": 6816,
            "name": "mesh21_idx_bufferView",
            "target": 34963
        },
        {
            "buffer": 0,
            "byteLength": 384,
            "byteOffset": 7632,
            "name": "mesh22_coord_bufferView",
            "target": 34962
        },
        {
            "buffer": 0,
            "byteLength": 384,
            "byteOffset": 8016,
            "name": "mesh22_norm_bufferView",
            "target": 34962
        },
        {
            "buffer": 0,
            "byteLength": 360,
            "byteOffset": 8400,
            "name": "mesh22_idx_bufferView",
            "target": 34963
        },
        {
            "buffer": 0,
            "byteLength": 768,
            "byteOffset": 8760,
            "name": "mesh23_coord_bufferView",
            "target": 34962
        },
        {
            "buffer": 0,
            "byteLength": 768,
            "byteOffset": 9528,
            "name": "mesh23_norm_bufferView",
            "target": 34962
        },
        {
            "buffer": 0,
            "byteLength": 744,
            "byteOffset": 10296,
            "name": "mesh23_idx_bufferView",
            "target": 34963
        },
        {
            "buffer": 0,
            "byteLength": 48,
            "byteOffset": 11040,
            "name": "mesh24_coord_bufferView",
            "target": 34962
        },
        {
            "buffer": 0,
            "byteLength": 48,
            "byteOffset": 11088,
            "name": "mesh24_norm_bufferView",
            "target": 34962
        },
        {
            "buffer": 0,
            "byteLength": 24,
            "byteOffset": 11136,
            "name": "mesh24_idx_bufferView",
            "target": 34963
        },
        {
            "buffer": 0,
            "byteLength": 384,
            "byteOffset": 11160,
            "name": "mesh25_coord_bufferView",
            "target": 34962
        },
        {
            "buffer": 0,
            "byteLength": 384,
            "byteOffset": 11544,
            "name": "mesh25_norm_bufferView",
            "target": 34962
        },
        {
            "buffer": 0,
            "byteLength": 360,
            "byteOffset": 11928,
            "name": "mesh25_idx_bufferView",
            "target": 34963
        },
        {
            "buffer": 0,
            "byteLength": 48,
            "byteOffset": 12288,
            "name": "mesh26_coord_bufferView",
            "target": 34962
        },
        {
            "buffer": 0,
            "byteLength": 48,
            "byteOffset": 12336,
            "name": "mesh26_norm_bufferView",
            "target": 34962
        },
        {
            "buffer": 0,
            "byteLength": 24,
            "byteOffset": 12384,
            "name": "mesh26_idx_bufferView",
            "target": 34963
        },
        {
            "buffer": 0,
            "byteLength": 384,
            "byteOffset": 12408,
            "name": "mesh27_coord_bufferView",
            "target": 34962
        },
        {
            "buffer": 0,
            "byteLength": 384,
            "byteOffset": 12792,
            "name": "mesh27_norm_bufferView",
            "target": 34962
        },
        {
            "buffer": 0,
            "byteLength": 360,
            "byteOffset": 13176,
            "name": "mesh27_idx_bufferView",
            "target": 34963
        },
        {
            "buffer": 0,
            "byteLength": 48,
            "byteOffset": 13536,
            "name": "mesh28_coord_bufferView",
            "target": 34962
        },
        {
            "buffer": 0,
            "byteLength": 48,
            "byteOffset": 13584,
            "name": "mesh28_norm_bufferView",
            "target": 34962
        },
        {
            "buffer": 0,
            "byteLength": 24,
            "byteOffset": 13632,
            "name": "mesh28_idx_bufferView",
            "target": 34963
        },
        {
            "buffer": 0,
            "byteLength": 384,
            "byteOffset": 13656,
            "name": "mesh29_coord_bufferView",
            "target": 34962
        },
        {
            "buffer": 0,
            "byteLength": 384,
            "byteOffset": 14040,
            "name": "mesh29_norm_bufferView",
            "target": 34962
        },
        {
            "buffer": 0,
            "byteLength": 360,
            "byteOffset": 14424,
            "name": "mesh29_idx_bufferView",
            "target": 34963
        },
        {
            "buffer": 0,
            "byteLength": 48,
            "byteOffset": 14784,
            "name": "mesh30_coord_bufferView",
            "target": 34962
        },
        {
            "buffer": 0,
            "byteLength": 48,
            "byteOffset": 14832,
            "name": "mesh30_norm_bufferView",
            "target": 34962
        },
        {
            "buffer": 0,
            "byteLength": 24,
            "byteOffset": 14880,
            "name": "mesh30_idx_bufferView",
            "target": 34963
        }
    ],
    "buffers": [
        {
            "byteLength": 14904,
            "name": "Total_buffer",
            "uri": "data:application/octet-stream;base64,"
        }
    ],
    "extensionsUsed": [
        "PTC_onshape_metadata"
    ],
    "materials": [
        {
            "doubleSided": true,
            "name": "0.141176_0.694118_0.650980_0.000000_0.000000",
            "pbrMetallicRoughness": {
                "baseColorFactor": [
                    0.1411764770746231,
                    0.6941176652908325,
                    0.6509804129600525,
                    1.0
                ],
                "metallicFactor": 0.0
            }
        },
        {
            "doubleSided": true,
            "name": "0.156863_0.156863_0.156863_0.000000_0.000000",
            "pbrMetallicRoughness": {
                "baseColorFactor": [
                    0.1568627506494522,
                    0.1568627506494522,
                    0.1568627506494522,
                    1.0
                ],
                "metallicFactor": 0.0
            }
        },
        {
            "doubleSided": true,
            "name": "0.647059_0.647059_0.647059_0.000000_0.000000",
            "pbrMetallicRoughness": {
                "baseColorFactor": [
                    0.6470588445663452,
                    0.6470588445663452,
                    0.6470588445663452,
                    1.0
                ],
                "metallicFactor": 0.0
            }
        },
        {
            "doubleSided": true,
            "name": "0.756863_0.462745_0.109804_0.000000_0.000000",
            "pbrMetallicRoughness": {
                "baseColorFactor": [
                    0.7568627595901489,
                    0.4627451002597809,
                    0.10980392247438431,
                    1.0
                ],
                "metallicFactor": 0.0
            }
        },
        {
            "doubleSided": true,
            "name": "0.231373_0.380392_0.705882_0.000000_0.000000",
            "pbrMetallicRoughness": {
                "baseColorFactor": [
                    0.23137255012989044,
                    0.3803921639919281,
                    0.7058823704719543,
                    1.0
                ],
                "metallicFactor": 0.0
            }
        },
        {
            "doubleSided": true,
            "name": "0.615686_0.811765_0.929412_0.000000_0.000000",
            "pbrMetallicRoughness": {
                "baseColorFactor": [
                    0.615686297416687,
                    0.8117647171020508,
                    0.929411768913269,
                    1.0
                ],
                "metallicFactor": 0.0
            }
        },
        {
            "doubleSided": true,
            "name": "0.341176_0.776471_0.741176_0.000000_0.000000",
            "pbrMetallicRoughness": {
                "baseColorFactor": [
                    0.34117648005485535,
                    0.7764706015586853,
                    0.7411764860153198,
                    1.0
                ],
                "metallicFactor": 0.0
            }
        },
        {
            "doubleSided": true,
            "name": "0.498039_0.498039_0.498039_0.000000_0.000000",
            "pbrMetallicRoughness": {
                "baseColorFactor": [
                    0.49803921580314636,
                    0.49803921580314636,
                    0.49803921580314636,
                    1.0
                ],
                "metallicFactor": 0.0
            }
        },
        {
            "doubleSided": true,
            "name": "0.980392_0.713725_0.003922_0.000000_0.000000",
            "pbrMetallicRoughness": {
                "baseColorFactor": [
                    0.9803921580314636,
                    0.7137255072593689,
                    0.003921568859368563,
                    1.0
                ],
                "metallicFactor": 0.0
            }
        }
    ],
    "meshes": [
        {
            "name": "mesh12_mesh",
            "primitives": [
                {
                    "attributes": {
                        "NORMAL": 1,
                        "POSITION": 0
                    },
                    "indices": 2,
                    "material": 0
                }
            ]
        },
        {
            "name": "mesh13_mesh",
            "primitives": [
                {
                    "attributes": {
                        "NORMAL": 4,
                        "POSITION": 3
                    },
                    "indices": 5,
                    "material": 0
                }
            ]
        },
        {
            "name": "mesh14_mesh",
            "primitives": [
                {
                    "attributes": {
                        "NORMAL": 7,
                        "POSITION": 6
                    },
                    "indices": 8,
                    "material": 1
                }
            ]
        },
        {
            "name": "mesh15_mesh",
            "primitives": [
                {
                    "attributes": {
                        "NORMAL": 10,
                        "POSITION": 9
                    },
                    "indices": 11,
                    "material": 1
                }
            ]
        },
        {
            "name": "mesh16_mesh",
            "primitives": [
                {
                    "attributes": {
                        "NORMAL": 13,
                        "POSITION": 12
                    },
                    "indices": 14,
                    "material": 1
                }
            ]
        },
        {
            "name": "mesh17_mesh",
            "primitives": [
                {
                    "attributes": {
                        "NORMAL": 16,
                        "POSITION": 15
                    },
                    "indices": 17,
                    "material": 1
                }
            ]
        },
        {
            "name": "mesh18_mesh",
            "primitives": [
                {
                    "attributes": {
                        "NORMAL": 19,
                        "POSITION": 18
                    },
                    "indices": 20,
                    "material": 1
                }
            ]
        },
        {
            "name": "mesh19_mesh",
            "primitives": [
                {
                    "attributes": {
                        "NORMAL": 22,
                        "POSITION": 21
                    },
                    "indices": 23,
                    "material": 1
                }
            ]
        },
        {
            "name": "mesh20_mesh",
            "primitives": [
                {
                    "attributes": {
                        "NORMAL": 25,
                        "POSITION": 24
                    },
                    "indices": 26,
                    "material": 1
                }
            ]
        },
        {
            "name": "mesh21_mesh",
            "primitives": [
                {
                    "attributes": {
                        "NORMAL": 28,
                        "POSITION": 27
                    },
                    "indices": 29,
                    "material": 3
                }
            ]
        },
        {
            "name": "mesh22_mesh",
            "primitives": [
                {
                    "attributes": {
                        "NORMAL": 31,
                        "POSITION": 30
                    },
                    "indices": 32,
                    "material": 3
                }
            ]
        },
        {
            "name": "mesh23_mesh",
            "primitives": [
                {
                    "attributes": {
                        "NORMAL": 34,
                        "POSITION": 33
                    },
                    "indices": 35,
                    "material": 3
                }
            ]
        },
        {
            "name": "mesh24_mesh",
            "primitives": [
                {
                    "attributes": {
                        "NORMAL": 37,
                        "POSITION": 36
                    },
                    "indices": 38,
                    "material": 3
                }
            ]
        },
        {
            "name": "mesh25_mesh",
            "primitives": [
                {
                    "attributes": {
                        "NORMAL": 40,
                        "POSITION": 39
                    },
                    "indices": 41,
                    "material": 3
                }
            ]
        },
        {
            "name": "mesh26_mesh",
            "primitives": [
                {
                    "attributes": {
                        "NORMAL": 43,
                        "POSITION": 42
                    },
                    "indices": 44,
                    "material": 3
                }
            ]
        },
        {
            "name": "mesh27_mesh",
            "primitives": [
                {
                    "attributes": {
                        "NORMAL": 46,
                        "POSITION": 45
                    },
                    "indices": 47,
                    "material": 3
                }
            ]
        },
        {
            "name": "mesh28_mesh",
            "primitives": [
                {
                    "attributes": {
                        "NORMAL": 49,
                        "POSITION": 48
                    },
                    "indices": 50,
                    "material": 3
                }
            ]
        },
        {
            "name": "mesh29_mesh",
            "primitives": [
                {
                    "attributes": {
                        "NORMAL": 52,
                        "POSITION": 51
                    },
                    "indices": 53,
                    "material": 3
                }
            ]
        },
        {
            "name": "mesh30_mesh",
            "primitives": [
                {
                    "attributes": {
                        "NORMAL": 55,
                        "POSITION": 54
                    },
                    "indices": 56,
                    "material": 3
                }
            ]
        }
    ],
    "nodes": [
        {
            "mesh": 0,
            "name": "mesh12"
        },
        {
            "mesh": 1,
            "name": "mesh13"
        },
        {
            "mesh": 2,
            "name": "mesh14"
        },
        {
            "mesh": 3,
            "name": "mesh15"
        },
        {
            "mesh": 4,
            "name": "mesh16"
        },
        {
            "mesh": 5,
            "name": "mesh17"
        },
        {
            "mesh": 6,
            "name": "mesh18"
        },
        {
            "mesh": 7,
            "name": "mesh19"
        },
        {
            "mesh": 8,
            "name": "mesh20"
        },
        {
            "mesh": 9,
            "name": "mesh21"
        },
        {
            "mesh": 10,
            "name": "mesh22"
        },
        {
            "mesh": 11,
            "name": "mesh23"
        },
        {
            "mesh": 12,
            "name": "mesh24"
        },
        {
            "mesh": 13,
            "name": "mesh25"
        },
        {
            "mesh": 14,
            "name": "mesh26"
        },
        {
            "mesh": 15,
            "name": "mesh27"
        },
        {
            "mesh": 16,
            "name": "mesh28"
        },
        {
            "mesh": 17,
            "name": "mesh29"
        },
        {
            "mesh": 18,
            "name": "mesh30"
        }
    ],
    "scene": 0,
    "scenes": [
        {
            "name": "Root",
            "nodes": [
                0,
                1,
                2,
                3,
                4,
                5,
                6,
                7,
                8,
                9,
                10,
                11,
                12,
                13,
                14,
                15,
                16,
                17,
                18
            ]
        }
    ]
}